HIERARCHY
ROOT Hips
{
	OFFSET	0.00	0.00	0.00
	CHANNELS 6 Xposition Yposition Zposition Zrotation Xrotation Yrotation
	JOINT LeftUpLeg
	{
		OFFSET	 0.126116	-0.014019	-0.065224
		CHANNELS 3 Zrotation Xrotation Yrotation
		JOINT LeftLeg
		{
			OFFSET	 0.000000	 0.000000	 0.569914
			CHANNELS 3 Zrotation Xrotation Yrotation
			JOINT LeftFoot
			{
				OFFSET	 0.000000	 0.000000	 0.544423
				CHANNELS 3 Zrotation Xrotation Yrotation
				JOINT LeftToeBase
				{
					OFFSET	 0.000000	 0.000000	 0.207117
					CHANNELS 3 Zrotation Xrotation Yrotation
					End Site
					{
						OFFSET	 0.000000	 0.000000	 0.207117
					}
				}
			}
		}
	}
	JOINT RightUpLeg
	{
		OFFSET	-0.124023	-0.008373	-0.065224
		CHANNELS 3 Zrotation Xrotation Yrotation
		JOINT RightLeg
		{
			OFFSET	 0.000000	 0.000000	 0.570047
			CHANNELS 3 Zrotation Xrotation Yrotation
			JOINT RightFoot
			{
				OFFSET	 0.000000	 0.000000	 0.544354
				CHANNELS 3 Zrotation Xrotation Yrotation
				JOINT RightToeBase
				{
					OFFSET	 0.000000	 0.000000	 0.207540
					CHANNELS 3 Zrotation Xrotation Yrotation
					End Site
					{
						OFFSET	 0.000000	 0.000000	 0.207540
					}
				}
			}
		}
	}
	JOINT Spine
	{
		OFFSET	 0.000184	-0.007763	 0.117403
		CHANNELS 3 Zrotation Xrotation Yrotation
		JOINT Spine1
		{
			OFFSET	 0.000000	 0.000000	 0.137269
			CHANNELS 3 Zrotation Xrotation Yrotation
			JOINT Spine2
			{
				OFFSET	 0.000000	 0.000000	 0.156879
				CHANNELS 3 Zrotation Xrotation Yrotation
				JOINT LeftShoulder
				{
					OFFSET	 0.080501	-0.002496	 0.160144
					CHANNELS 3 Zrotation Xrotation Yrotation
					JOINT LeftArm
					{
						OFFSET	 0.000000	 0.000000	 0.164363
						CHANNELS 3 Zrotation Xrotation Yrotation
						JOINT LeftForeArm
						{
							OFFSET	 0.000000	 0.000000	 0.364576
							CHANNELS 3 Zrotation Xrotation Yrotation
							JOINT LeftHand
							{
								OFFSET	 0.000000	 0.000000	 0.360812
								CHANNELS 3 Zrotation Xrotation Yrotation
								JOINT LeftHandIndex1
								{
									OFFSET	 0.000000	 0.000000	 0.086006
									CHANNELS 3 Zrotation Xrotation Yrotation
									JOINT LeftHandIndex2
									{
										OFFSET	 0.000000	 0.000000	 0.047236
										CHANNELS 3 Zrotation Xrotation Yrotation
										JOINT LeftHandIndex3
										{
											OFFSET	-0.004284	-0.000551	 0.038166
											CHANNELS 3 Zrotation Xrotation Yrotation
											End Site
											{
												OFFSET	-0.004284	-0.000551	 0.038166
											}
										}
									}
								}
							}
						}
					}
				}
				JOINT Neck
				{
					OFFSET	 0.000000	 0.000000	 0.176489
					CHANNELS 3 Zrotation Xrotation Yrotation
					JOINT Head
					{
						OFFSET	 0.000000	-0.001747	 0.077940
						CHANNELS 3 Zrotation Xrotation Yrotation
						End Site
						{
							OFFSET	 0.000000	-0.001747	 0.077940
						}
					}
				}
				JOINT RightShoulder
				{
					OFFSET	-0.080363	 0.000306	 0.159706
					CHANNELS 3 Zrotation Xrotation Yrotation
					JOINT RightArm
					{
						OFFSET	 0.000000	 0.000000	 0.164196
						CHANNELS 3 Zrotation Xrotation Yrotation
						JOINT RightForeArm
						{
							OFFSET	 0.000000	 0.000000	 0.365611
							CHANNELS 3 Zrotation Xrotation Yrotation
							JOINT RightHand
							{
								OFFSET	 0.000000	 0.000000	 0.360648
								CHANNELS 3 Zrotation Xrotation Yrotation
								JOINT RightHandIndex1
								{
									OFFSET	 0.000000	 0.000000	 0.069977
									CHANNELS 3 Zrotation Xrotation Yrotation
									JOINT RightHandIndex2
									{
										OFFSET	 0.000000	 0.000000	 0.052305
										CHANNELS 3 Zrotation Xrotation Yrotation
										JOINT RightHandIndex3
										{
											OFFSET	 0.009002	-0.000782	 0.042196
											CHANNELS 3 Zrotation Xrotation Yrotation
											End Site
											{
												OFFSET	 0.009002	-0.000782	 0.042196
											}
										}
									}
								}
							}
						}
					}
				}
			}
		}
	}
}
MOTION
Frames:    9
Frame Time: 0.03333334
-0.044177	-2.602951	 1.044884	-10.138520	 0.909641	 0.538157	 2.120353	-33.669260	 172.346800	-6.107231	-68.272830	-6.648534	 177.139000	 86.815800	 179.981000	-2.326653	 37.233250	-0.203802	-0.246068	-35.260130	-177.441900	 1.768608	-72.893530	 4.333195	-177.924400	 85.432410	 179.541400	 2.404371	 21.725010	-0.138648	 7.158575	 13.381700	 0.244642	 11.690130	 6.100917	-2.323581	 14.191620	 3.527616	 0.505005	-137.274200	 89.540300	-131.137900	 49.317550	 61.186690	-77.457530	-15.018780	-1.491621	-22.898970	 0.862842	-2.220308	-5.361524	-3.812334	 37.924440	-2.927599	-2.450526	 36.184240	 0.754587	-1.378229	 35.397820	-2.634230	 1.570984	 2.517885	-3.137514	 4.260687	 7.247582	 2.148334	 93.970020	 85.947200	 171.461100	-54.123800	 70.476590	 73.374540	-4.583564	-11.554100	 24.350460	-27.304890	-3.209041	 9.542093	 6.437017	 35.671460	-0.771858	 2.830251	 35.756010	-7.813440	-2.350882	 35.473990	 5.254307
-0.042172	-2.601289	 1.054511	-10.851820	 2.153319	 0.426206	 2.348081	-34.257060	 172.475500	-5.355269	-66.852890	-5.650702	 176.593800	 87.365520	-179.232600	-2.338252	 35.933240	-0.171529	 0.168859	-35.738780	-177.554700	 1.537401	-70.878990	 4.341349	-177.360900	 85.824110	 179.146100	 2.405739	 20.737840	-0.158420	 8.390379	 13.497290	 0.168514	 11.430480	 6.076877	-2.287813	 13.983950	 3.516928	 0.498852	-129.370000	 89.465870	-139.039300	 47.847900	 61.177960	-76.507550	-15.007250	-1.581972	-22.301770	 1.236595	-2.235170	-5.358026	-3.812334	 37.924440	-2.927599	-2.450526	 36.184240	 0.754587	-1.378229	 35.397820	-2.634230	 1.711793	 2.341199	-3.097305	 4.287792	 7.154251	 2.599805	 94.145810	 85.992980	 171.181100	-54.050400	 70.742740	 73.194560	-4.661762	-11.444190	 23.957950	-27.567870	-3.211595	 9.536871	 6.437017	 35.671460	-0.771858	 2.830251	 35.756010	-7.813440	-2.350882	 35.473990	 5.254307
-0.040181	-2.599694	 1.063088	-11.458560	 3.291380	 0.250028	 2.554075	-34.824730	 172.707100	-4.787961	-65.640570	-4.871760	 175.784700	 87.876240	-178.205000	-2.346636	 34.909160	-0.146689	 0.552595	-36.285570	-177.510400	 1.242643	-69.306590	 4.271442	-176.752600	 86.232990	 178.641000	 2.406260	 20.271880	-0.167703	 9.483151	 13.572840	 0.154977	 11.163730	 6.080030	-2.230273	 13.772190	 3.528007	 0.489885	-124.863400	 89.410830	-143.566400	 46.520780	 61.096860	-75.647780	-15.075250	-1.609969	-21.797540	 1.423822	-2.246192	-5.355796	-3.812334	 37.924440	-2.927599	-2.450526	 36.184240	 0.754587	-1.378229	 35.397820	-2.634230	 1.830190	 2.208026	-3.033618	 4.313895	 7.073270	 3.043315	 94.276660	 86.025320	 170.972900	-54.016370	 71.037980	 72.943190	-4.571573	-11.269150	 23.615890	-27.630220	-3.214005	 9.532965	 6.437017	 35.671460	-0.771858	 2.830251	 35.756010	-7.813440	-2.350882	 35.473990	 5.254307
-0.037253	-2.597895	 1.073969	-12.354640	 4.679639	-0.063343	 2.941395	-35.370820	 173.097600	-4.341477	-64.073210	-4.066093	 173.702000	 88.555580	-175.880100	-2.356132	 33.640540	-0.116595	 1.138968	-37.111150	-177.288600	 0.411084	-67.799280	 3.840059	-175.172700	 87.061290	 176.997200	 2.406684	 19.825360	-0.176567	 11.004110	 13.764160	 0.222247	 10.826840	 6.134652	-2.140030	 13.447380	 3.540208	 0.476786	-121.095800	 89.352290	-147.357300	 44.858280	 60.932210	-74.786290	-15.377550	-1.580549	-21.174960	 1.468880	-2.259773	-5.354181	-3.812334	 37.924440	-2.927599	-2.450526	 36.184240	 0.754587	-1.378229	 35.397820	-2.634230	 2.001032	 2.052361	-2.935209	 4.327502	 6.949570	 3.621470	 94.398680	 86.057130	 170.784500	-53.976400	 71.489900	 72.524990	-4.512062	-11.028340	 23.086050	-27.785160	-3.218052	 9.525983	 6.437017	 35.671460	-0.771858	 2.830251	 35.756010	-7.813440	-2.350882	 35.473990	 5.254307
-0.035530	-2.597097	 1.080101	-12.941610	 5.384028	-0.272152	 3.267438	-35.545070	 173.376000	-4.248066	-63.142430	-3.687780	 171.147300	 88.955070	-173.208000	-2.360781	 32.968770	-0.100941	 1.493323	-37.606830	-177.110700	-0.287616	-67.016240	 3.401605	-173.754300	 87.599060	 175.440400	 2.406916	 19.535500	-0.182312	 11.980580	 14.000780	 0.308527	 10.629390	 6.217810	-2.087725	 13.216050	 3.547695	 0.467640	-119.712800	 89.324200	-148.738600	 43.913190	 60.843040	-74.454090	-15.534010	-1.589285	-20.791480	 1.585452	-2.269237	-5.352265	-3.812334	 37.924440	-2.927599	-2.450526	 36.184240	 0.754587	-1.378229	 35.397820	-2.634230	 2.110639	 1.960554	-2.886946	 4.316051	 6.902315	 3.919690	 94.454640	 86.073840	 170.702800	-53.878850	 71.782260	 72.202840	-4.552274	-10.884260	 22.692400	-27.974530	-3.221470	 9.519076	 6.437017	 35.671460	-0.771858	 2.830251	 35.756010	-7.813440	-2.350882	 35.473990	 5.254307
-0.033802	-2.596590	 1.086031	-13.529690	 6.053756	-0.481150	 3.657237	-35.611980	 173.669600	-4.201102	-62.168210	-3.311886	 165.396700	 89.353810	-167.330400	-2.364555	 32.394150	-0.087690	 1.777739	-38.057500	-176.833300	-1.067401	-66.186980	 2.832577	-172.057900	 88.078680	 173.537700	 2.407083	 19.298370	-0.186993	 13.034380	 14.294580	 0.421364	 10.375900	 6.328328	-2.028532	 12.918620	 3.550617	 0.456696	-118.753200	 89.305360	-149.708000	 42.968490	 60.802270	-74.298450	-15.581950	-1.662889	-20.347190	 1.937134	-2.282316	-5.348216	-3.812334	 37.924440	-2.927599	-2.450526	 36.184240	 0.754587	-1.378229	 35.397820	-2.634230	 2.209878	 1.874808	-2.849714	 4.286807	 6.874209	 4.142379	 94.510270	 86.093390	 170.626800	-53.695990	 72.125980	 71.777970	-4.646509	-10.717180	 22.191140	-28.254230	-3.226330	 9.508198	 6.437017	 35.671460	-0.771858	 2.830251	 35.756010	-7.813440	-2.350882	 35.473990	 5.254307
-0.032486	-2.596463	 1.091725	-13.974230	 6.688641	-0.629813	 4.036956	-35.674080	 173.911500	-4.084839	-61.199260	-2.886767	 147.439000	 89.698040	-149.204500	-2.367342	 31.952760	-0.077596	 1.892290	-38.275590	-176.676800	-1.787017	-65.264540	 2.207626	-170.021700	 88.480960	 171.257000	 2.407122	 19.243230	-0.188080	 14.072270	 14.562220	 0.487213	 10.010220	 6.460536	-1.984438	 12.531950	 3.562432	 0.441618	-118.224100	 89.301150	-150.275900	 42.092620	 60.876890	-74.407840	-15.645980	-1.773985	-19.825120	 2.454364	-2.298863	-5.341893	-3.812334	 37.924440	-2.927599	-2.450526	 36.184240	 0.754587	-1.378229	 35.397820	-2.634230	 2.263452	 1.864486	-2.789099	 4.239247	 6.838951	 4.204302	 94.577450	 86.119090	 170.540100	-53.341270	 72.546130	 71.130000	-4.782820	-10.512760	 21.564270	-28.622270	-3.232576	 9.493562	 6.437017	 35.671460	-0.771858	 2.830251	 35.756010	-7.813440	-2.350882	 35.473990	 5.254307
-0.031675	-2.596559	 1.097009	-14.162750	 7.298351	-0.674785	 4.302946	-35.839380	 174.021300	-3.850984	-60.308950	-2.444197	 81.366820	 89.836870	-82.934970	-2.369015	 31.678710	-0.071372	 1.791080	-38.301550	-176.600900	-2.245781	-64.288870	 1.676720	-167.463600	 88.796020	 168.482200	 2.407061	 19.322530	-0.186513	 15.012590	 14.691700	 0.458605	 9.523845	 6.588696	-1.987750	 12.057370	 3.589493	 0.421904	-118.118600	 89.315570	-150.464600	 41.376050	 61.019450	-74.699150	-15.805480	-1.858422	-19.239550	 2.924479	-2.315335	-5.335283	-3.812334	 37.924440	-2.927599	-2.450526	 36.184240	 0.754587	-1.378229	 35.397820	-2.634230	 2.243232	 1.921453	-2.713881	 4.178096	 6.809742	 4.127772	 94.669820	 86.150350	 170.415200	-52.742520	 73.052490	 70.167850	-4.927752	-10.262830	 20.826310	-29.050270	-3.239613	 9.476631	 6.437017	 35.671460	-0.771858	 2.830251	 35.756010	-7.813440	-2.350882	 35.473990	 5.254307
-0.031322	-2.596192	 1.101334	-14.112790	 7.809574	-0.674075	 4.429248	-36.068290	 174.079600	-3.580331	-59.573790	-2.080034	 34.575950	 89.718840	-35.969680	-2.369212	 31.645690	-0.070619	 1.531460	-38.461880	-176.586300	-2.339261	-63.498230	 1.367836	-164.311000	 89.032880	 165.199400	 2.406948	 19.480780	-0.183389	 15.810030	 14.760780	 0.422629	 8.986589	 6.677498	-2.051450	 11.544330	 3.624946	 0.400243	-119.240200	 89.358060	-149.432100	 40.931100	 61.139350	-75.134820	-16.061490	-1.894508	-18.882720	 3.189700	-2.327880	-5.330770	-3.812334	 37.924440	-2.927599	-2.450526	 36.184240	 0.754587	-1.378229	 35.397820	-2.634230	 2.176816	 1.998953	-2.698680	 4.099298	 6.809316	 4.025488	 94.661390	 86.123540	 170.383200	-51.914900	 73.616130	 68.932710	-5.016445	-10.039400	 20.157410	-29.482340	-3.246362	 9.459875	 6.437017	 35.671460	-0.771858	 2.830251	 35.756010	-7.813440	-2.350882	 35.473990	 5.254307
